<svg width="120" height="44" viewBox="0 0 120 44" fill="none" xmlns="http://www.w3.org/2000/svg">
<rect x="0.5" y="0.5" width="119" height="43" rx="7.5" fill="#FFE8E8"/>
<path d="M45.4609 10.3776L38.5126 10.3776C38.0984 10.3776 37.7628 10.7175 37.7628 11.1369L37.7628 25.48C37.7628 25.8994 38.0984 26.2393 38.5126 26.2393L45.4609 26.2393L45.4609 10.3776Z" fill="#779CEB"/>
<path d="M21.4984 22.2832C20.4163 22.2832 19.5389 23.1718 19.5389 24.2676C19.5389 25.3634 20.4163 26.2519 21.4984 26.2519L27.7089 26.2519C26.6279 28.2231 26.5952 34.2105 29.1601 34.9294C29.6457 35.0655 30.1276 34.6898 30.1823 34.1826C30.6329 29.981 33.1718 24.7582 35.7527 24.6067L37.7632 24.6067L37.7632 12.083L36.7202 12.083C36.1587 12.083 35.6225 11.8893 35.1543 11.5754C33.9859 10.7917 32.0179 10.3331 30.1317 10.3813L29.2196 10.3813L29.2196 10.3775L22.9537 10.3775C21.8716 10.3775 20.9942 11.2661 20.9942 12.3619C20.9942 13.4577 21.8716 14.3462 22.9537 14.3462L22.0804 14.3462C20.9983 14.3462 20.1209 15.2348 20.1209 16.3306C20.1209 17.4264 20.9983 18.3149 22.0804 18.3149L21.4981 18.3149C20.416 18.3149 19.5385 19.2035 19.5385 20.2993C19.5385 21.3951 20.4163 22.2832 21.4984 22.2832Z" fill="white"/>
<path d="M38.5131 9.99997L45.4614 9.99998C45.6668 9.99998 45.8335 10.1684 45.8335 10.3768L45.8335 26.2384C45.8335 26.4468 45.6668 26.6152 45.4614 26.6152L38.5131 26.6152C37.8946 26.6152 37.3912 26.1054 37.3912 25.4791L37.3912 11.1361C37.3912 10.5098 37.8946 9.99997 38.5131 9.99997ZM45.0893 10.7536L38.5131 10.7536C38.3047 10.7536 38.1354 10.9251 38.1354 11.1361L38.1354 25.4791C38.1354 25.6901 38.3047 25.8616 38.5131 25.8616L45.0893 25.8616L45.0893 10.7536Z" fill="black"/>
<path d="M30.4043 10.0006C32.2797 10.0006 34.2031 10.4852 35.3596 11.2611C35.7935 11.552 36.2638 11.7062 36.7196 11.7062L37.7627 11.7062C37.9681 11.7062 38.1348 11.8746 38.1348 12.083L38.1348 24.6067C38.1348 24.8151 37.9681 24.9835 37.7627 24.9835L35.7522 24.9835C33.4808 25.1169 30.9859 30.1761 30.5516 34.2232C30.5122 34.5914 30.3161 34.9211 30.0143 35.1287C29.7307 35.3239 29.3821 35.3827 29.0606 35.293C28.2814 35.0745 27.6488 34.4259 27.2313 33.4172C26.4075 31.4279 26.518 28.341 27.1357 26.6291L21.4983 26.6291C20.2126 26.6291 19.1667 25.5695 19.1667 24.2675C19.1667 23.4363 19.5931 22.7045 20.2357 22.2832C19.5927 21.8623 19.1667 21.1301 19.1667 20.2988C19.1667 19.3293 19.7471 18.4942 20.574 18.1314C20.0698 17.698 19.7486 17.0514 19.7486 16.3305C19.7486 15.283 20.4259 14.3921 21.3602 14.0843C20.9059 13.6528 20.622 13.0401 20.622 12.3618C20.622 11.0599 21.668 10.0006 22.9536 10.0006L29.2198 10.0006C29.2366 10.0006 29.2533 10.0018 29.2693 10.004L30.1319 10.004C30.2223 10.0018 30.3135 10.0006 30.4043 10.0006ZM37.3909 12.4594L36.72 12.4594C36.1176 12.4594 35.5051 12.2623 34.9488 11.8893C33.8548 11.1552 31.9723 10.7121 30.1412 10.7573L29.2195 10.7573C29.2027 10.7573 29.186 10.7562 29.17 10.7539L22.9536 10.7539C22.078 10.7539 21.3662 11.4748 21.3662 12.3614C21.3662 13.2481 22.078 13.969 22.9536 13.969C23.1594 13.969 23.3257 14.1374 23.3257 14.3458C23.3257 14.5542 23.1594 14.7226 22.9536 14.7226L22.0802 14.7226C21.2047 14.7226 20.4928 15.4439 20.4928 16.3305C20.4928 17.2172 21.2047 17.938 22.0802 17.938C22.286 17.938 22.4524 18.1065 22.4524 18.3149C22.4524 18.5233 22.286 18.6917 22.0802 18.6917L21.4983 18.6917C20.6227 18.6917 19.9109 19.4126 19.9109 20.2992C19.9109 21.1859 20.6227 21.9068 21.4983 21.9068C21.704 21.9068 21.8704 22.0752 21.8704 22.2836C21.8704 22.492 21.704 22.6604 21.4983 22.6604C20.6227 22.6604 19.9109 23.3813 19.9109 24.2679C19.9109 25.1546 20.6227 25.8758 21.4983 25.8758L27.7087 25.8758C27.8405 25.8758 27.9625 25.9467 28.0291 26.0616C28.0965 26.1765 28.0979 26.319 28.0339 26.4354C27.2938 27.7856 27.0951 31.1378 27.9175 33.1259C28.2486 33.9251 28.7 34.4097 29.2589 34.5665C29.4133 34.6091 29.5361 34.5465 29.596 34.5051C29.7151 34.4229 29.7959 34.2873 29.8115 34.1418C30.2893 29.6908 32.9789 24.3919 35.7306 24.2306L37.3906 24.2299L37.3909 12.4594Z" fill="black"/>
<path d="M21.4988 21.9065L24.8515 21.9065C25.0573 21.9065 25.2236 22.0749 25.2236 22.2833C25.2236 22.4917 25.0573 22.6602 24.8515 22.6602L21.4988 22.6602C21.2931 22.6602 21.1267 22.4917 21.1267 22.2833C21.1267 22.0749 21.2931 21.9065 21.4988 21.9065Z" fill="black"/>
<path d="M22.0802 17.9378L24.8506 17.9378C25.0563 17.9378 25.2227 18.1062 25.2227 18.3146C25.2227 18.523 25.0563 18.6914 24.8506 18.6914L22.0802 18.6914C21.8744 18.6914 21.7081 18.523 21.7081 18.3146C21.7081 18.1062 21.8744 17.9378 22.0802 17.9378Z" fill="black"/>
<path d="M22.9542 13.9695L24.8515 13.9695C25.0573 13.9695 25.2236 14.1379 25.2236 14.3463C25.2236 14.5547 25.0573 14.7231 24.8515 14.7231L22.9542 14.7231C22.7484 14.7231 22.5821 14.5547 22.5821 14.3463C22.5821 14.1379 22.7484 13.9695 22.9542 13.9695Z" fill="black"/>
<path d="M40.5752 12.866L41.6123 12.866C41.8177 12.866 41.9844 13.0344 41.9844 13.2428C41.9844 13.4512 41.8177 13.6196 41.6123 13.6196L40.5752 13.6196C40.3698 13.6196 40.2031 13.4512 40.2031 13.2428C40.2031 13.0344 40.3698 12.866 40.5752 12.866Z" fill="black"/>
<path d="M60.8984 27.5H58.5234L58.5391 26.2734H60.8984C61.7109 26.2734 62.388 26.1042 62.9297 25.7656C63.4714 25.4219 63.8776 24.9427 64.1484 24.3281C64.4245 23.7083 64.5625 22.9844 64.5625 22.1562V21.4609C64.5625 20.8099 64.4844 20.2318 64.3281 19.7266C64.1719 19.2161 63.9427 18.7865 63.6406 18.4375C63.3385 18.0833 62.9688 17.8151 62.5312 17.6328C62.099 17.4505 61.6016 17.3594 61.0391 17.3594H58.4766V16.125H61.0391C61.7839 16.125 62.4635 16.25 63.0781 16.5C63.6927 16.7448 64.2214 17.1016 64.6641 17.5703C65.112 18.0339 65.4557 18.5964 65.6953 19.2578C65.9349 19.9141 66.0547 20.6536 66.0547 21.4766V22.1562C66.0547 22.9792 65.9349 23.7214 65.6953 24.3828C65.4557 25.0391 65.1094 25.599 64.6562 26.0625C64.2083 26.526 63.6667 26.8828 63.0312 27.1328C62.401 27.3776 61.6901 27.5 60.8984 27.5ZM59.3281 16.125V27.5H57.8203V16.125H59.3281ZM69.6719 19.0469V27.5H68.2188V19.0469H69.6719ZM68.1094 16.8047C68.1094 16.5703 68.1797 16.3724 68.3203 16.2109C68.4661 16.0495 68.6797 15.9688 68.9609 15.9688C69.237 15.9688 69.4479 16.0495 69.5938 16.2109C69.7448 16.3724 69.8203 16.5703 69.8203 16.8047C69.8203 17.0286 69.7448 17.2214 69.5938 17.3828C69.4479 17.5391 69.237 17.6172 68.9609 17.6172C68.6797 17.6172 68.4661 17.5391 68.3203 17.3828C68.1797 17.2214 68.1094 17.0286 68.1094 16.8047ZM76.9141 25.2578C76.9141 25.0495 76.8672 24.8568 76.7734 24.6797C76.6849 24.4974 76.5 24.3333 76.2188 24.1875C75.9427 24.0365 75.526 23.9062 74.9688 23.7969C74.5 23.6979 74.0755 23.5807 73.6953 23.4453C73.3203 23.3099 73 23.1458 72.7344 22.9531C72.474 22.7604 72.2734 22.5339 72.1328 22.2734C71.9922 22.013 71.9219 21.7083 71.9219 21.3594C71.9219 21.026 71.9948 20.7109 72.1406 20.4141C72.2917 20.1172 72.5026 19.8542 72.7734 19.625C73.0495 19.3958 73.3802 19.2161 73.7656 19.0859C74.151 18.9557 74.5807 18.8906 75.0547 18.8906C75.7318 18.8906 76.3099 19.0104 76.7891 19.25C77.2682 19.4896 77.6354 19.8099 77.8906 20.2109C78.1458 20.6068 78.2734 21.0469 78.2734 21.5312H76.8281C76.8281 21.2969 76.7578 21.0703 76.6172 20.8516C76.4818 20.6276 76.2812 20.4427 76.0156 20.2969C75.7552 20.151 75.4349 20.0781 75.0547 20.0781C74.6536 20.0781 74.3281 20.1406 74.0781 20.2656C73.8333 20.3854 73.6536 20.5391 73.5391 20.7266C73.4297 20.9141 73.375 21.112 73.375 21.3203C73.375 21.4766 73.401 21.6172 73.4531 21.7422C73.5104 21.862 73.6094 21.974 73.75 22.0781C73.8906 22.1771 74.0885 22.2708 74.3438 22.3594C74.599 22.4479 74.9245 22.5365 75.3203 22.625C76.013 22.7812 76.5833 22.9688 77.0312 23.1875C77.4792 23.4062 77.8125 23.6745 78.0312 23.9922C78.25 24.3099 78.3594 24.6953 78.3594 25.1484C78.3594 25.5182 78.2812 25.8568 78.125 26.1641C77.974 26.4714 77.7526 26.737 77.4609 26.9609C77.1745 27.1797 76.8307 27.3516 76.4297 27.4766C76.0339 27.5964 75.5885 27.6562 75.0938 27.6562C74.349 27.6562 73.7188 27.5234 73.2031 27.2578C72.6875 26.9922 72.2969 26.6484 72.0312 26.2266C71.7656 25.8047 71.6328 25.3594 71.6328 24.8906H73.0859C73.1068 25.2865 73.2214 25.6016 73.4297 25.8359C73.638 26.0651 73.8932 26.2292 74.1953 26.3281C74.4974 26.4219 74.7969 26.4688 75.0938 26.4688C75.4896 26.4688 75.8203 26.4167 76.0859 26.3125C76.3568 26.2083 76.5625 26.0651 76.7031 25.8828C76.8438 25.7005 76.9141 25.4922 76.9141 25.2578ZM81.8281 15.5V27.5H80.375V15.5H81.8281ZM85.7188 19.0469V27.5H84.2656V19.0469H85.7188ZM84.1562 16.8047C84.1562 16.5703 84.2266 16.3724 84.3672 16.2109C84.513 16.0495 84.7266 15.9688 85.0078 15.9688C85.2839 15.9688 85.4948 16.0495 85.6406 16.2109C85.7917 16.3724 85.8672 16.5703 85.8672 16.8047C85.8672 17.0286 85.7917 17.2214 85.6406 17.3828C85.4948 17.5391 85.2839 17.6172 85.0078 17.6172C84.7266 17.6172 84.513 17.5391 84.3672 17.3828C84.2266 17.2214 84.1562 17.0286 84.1562 16.8047ZM89.4922 15.5V27.5H88.0391V15.5H89.4922ZM94.6562 19.0469L90.9688 22.9922L88.9062 25.1328L88.7891 23.5938L90.2656 21.8281L92.8906 19.0469H94.6562ZM93.3359 27.5L90.3203 23.4688L91.0703 22.1797L95.0391 27.5H93.3359ZM99.5 27.6562C98.9115 27.6562 98.3776 27.5573 97.8984 27.3594C97.4245 27.1562 97.0156 26.8724 96.6719 26.5078C96.3333 26.1432 96.0729 25.7109 95.8906 25.2109C95.7083 24.7109 95.6172 24.1641 95.6172 23.5703V23.2422C95.6172 22.5547 95.7188 21.9427 95.9219 21.4062C96.125 20.8646 96.401 20.4062 96.75 20.0312C97.099 19.6562 97.4948 19.3724 97.9375 19.1797C98.3802 18.987 98.8385 18.8906 99.3125 18.8906C99.9167 18.8906 100.438 18.9948 100.875 19.2031C101.318 19.4115 101.68 19.7031 101.961 20.0781C102.242 20.4479 102.451 20.8854 102.586 21.3906C102.721 21.8906 102.789 22.4375 102.789 23.0312V23.6797H96.4766V22.5H101.344V22.3906C101.323 22.0156 101.245 21.651 101.109 21.2969C100.979 20.9427 100.771 20.651 100.484 20.4219C100.198 20.1927 99.8073 20.0781 99.3125 20.0781C98.9844 20.0781 98.6823 20.1484 98.4062 20.2891C98.1302 20.4245 97.8932 20.6276 97.6953 20.8984C97.4974 21.1693 97.3438 21.5 97.2344 21.8906C97.125 22.2812 97.0703 22.7318 97.0703 23.2422V23.5703C97.0703 23.9714 97.125 24.349 97.2344 24.7031C97.349 25.0521 97.513 25.3594 97.7266 25.625C97.9453 25.8906 98.2083 26.099 98.5156 26.25C98.8281 26.401 99.1823 26.4766 99.5781 26.4766C100.089 26.4766 100.521 26.3724 100.875 26.1641C101.229 25.9557 101.539 25.6771 101.805 25.3281L102.68 26.0234C102.497 26.2995 102.266 26.5625 101.984 26.8125C101.703 27.0625 101.357 27.2656 100.945 27.4219C100.539 27.5781 100.057 27.6562 99.5 27.6562Z" fill="black"/>
<rect x="0.5" y="0.5" width="119" height="43" rx="7.5" stroke="#C83A3A"/>
</svg>
