<svg fill="none" height="42" viewBox="0 0 24 24" width="42" xmlns="http://www.w3.org/2000/svg"><g stroke="#001a72" stroke-linecap="round" stroke-linejoin="round" stroke-width="1.5"><path d="m7.83334 13.6c.4247.8031 1.14611 1.4676 2.05554 1.8934.90942.4257 1.95762.5896 2.98662.467s1.9831-.5251 2.7185-1.1468l1.406-1.0685"/><path d="m17 16v-2.4h-2.5"/><path d="m16.1667 10.4c-.4247-.80313-1.1461-1.46762-2.0556-1.89336-.9094-.42573-1.9576-.58965-2.9866-.46705s-1.9831.52508-2.71851 1.14678l-1.40599 1.06853"/><path d="m7 8v2.4h2.5"/><path d="m12 21c4.9706 0 9-4.0294 9-9 0-4.97056-4.0294-9-9-9-4.97056 0-9 4.02944-9 9 0 4.9706 4.02944 9 9 9z"/></g></svg>