<svg width="21" height="21" viewBox="0 0 21 21" fill="none" xmlns="http://www.w3.org/2000/svg">
<path d="M10.9702 2.58447V1.58447M16.9702 4.58447L17.9702 3.58447M18.9702 10.5845H19.9702M2.97021 10.5845H1.97021M3.97021 3.58447L4.97021 4.58447M8.97021 15.5845H12.9702M10.9702 5.58447C9.98598 5.5846 9.02367 5.87521 8.20389 6.41988C7.3841 6.96455 6.7433 7.73906 6.36178 8.64635C5.98027 9.55363 5.87501 10.5533 6.0592 11.5202C6.24339 12.487 6.70884 13.378 7.39721 14.0815C7.74021 14.4325 8.02322 14.8515 8.11922 15.3325L8.64921 17.9765C8.73977 18.4295 8.98438 18.8373 9.3415 19.1304C9.69861 19.4235 10.1462 19.584 10.6082 19.5845H11.3302C11.7924 19.5842 12.2402 19.4238 12.5975 19.1307C12.9549 18.8376 13.1996 18.4297 13.2902 17.9765L13.8202 15.3325C13.9162 14.8505 14.1992 14.4325 14.5422 14.0825C15.2309 13.3791 15.6966 12.4881 15.881 11.5212C16.0654 10.5543 15.9603 9.55445 15.5789 8.647C15.1975 7.73955 14.5567 6.96488 13.7368 6.42008C12.917 5.87529 11.9546 5.58461 10.9702 5.58447Z" stroke="#FFB169" stroke-width="2" stroke-linecap="round" stroke-linejoin="round"/>
</svg>
