<svg width="88" height="88" viewBox="0 0 88 88" fill="none" xmlns="http://www.w3.org/2000/svg">
<g clip-path="url(#clip0_1_2)">
<path d="M84 44C84 21.9086 66.0914 4 44 4C21.9086 4 4 21.9086 4 44C4 66.0914 21.9086 84 44 84C66.0914 84 84 66.0914 84 44Z" fill="#FC4B96"/>
<mask id="mask0_1_2" style="mask-type:luminance" maskUnits="userSpaceOnUse" x="20" y="20" width="48" height="48">
<path d="M68 20H20V68H68V20Z" fill="white"/>
</mask>
<g mask="url(#mask0_1_2)">
<path d="M28 30C28 28.8954 28.8954 28 30 28H58C59.1046 28 60 28.8954 60 30V58C60 59.1046 59.1046 60 58 60H30C28.8954 60 28 59.1046 28 58V30Z" fill="black"/>
</g>
<path d="M84 44C84 21.9086 66.0914 4 44 4C21.9086 4 4 21.9086 4 44C4 66.0914 21.9086 84 44 84C66.0914 84 84 66.0914 84 44Z" stroke="#64AF4F" stroke-width="8"/>
</g>
<defs>
<clipPath id="clip0_1_2">
<rect width="88" height="88" fill="white"/>
</clipPath>
</defs>
</svg>
