<svg width="16" height="17" viewBox="0 0 16 17" fill="none" xmlns="http://www.w3.org/2000/svg">
<path d="M12.2351 16.5C12.0388 16.5 11.8426 16.4448 11.6673 16.3404L8.19936 14.2728C8.13874 14.2367 8.06993 14.2176 8.0001 14.2176C7.93016 14.2176 7.86135 14.2367 7.80074 14.2728L4.33274 16.3404C4.15771 16.4448 3.9613 16.5 3.765 16.5C3.42415 16.5 3.09046 16.3331 2.87256 16.0534C2.65624 15.7758 2.57265 15.4134 2.64316 15.059L3.45531 10.9774C3.4842 10.8326 3.43689 10.681 3.33214 10.5814L0.376621 7.77756C0.0388406 7.45703 -0.0834191 6.97659 0.057607 6.52334C0.198747 6.07009 0.568256 5.75633 1.02204 5.70433L4.99193 5.2493C5.13272 5.23315 5.25635 5.13937 5.31447 5.00463L6.95583 1.20421C7.14348 0.769838 7.54359 0.5 8.0001 0.5C8.45651 0.5 8.85661 0.769838 9.04427 1.20421L10.6856 5.00463C10.7439 5.13949 10.8674 5.23315 11.0081 5.2493L14.978 5.70433C15.4318 5.75633 15.8012 6.07009 15.9424 6.5231C16.0834 6.97636 15.9613 7.45691 15.6235 7.77744L12.6678 10.5814C12.5631 10.6807 12.5159 10.8324 12.5447 10.9773L13.3569 15.0589C13.4273 15.4134 13.3437 15.7757 13.1274 16.0533C12.9095 16.3331 12.5759 16.4999 12.2351 16.5Z" fill="url(#paint0_linear_1159_1416)"/>
<path d="M8.70536 1.36333L10.3467 5.16386C10.4593 5.42443 10.6954 5.60357 10.9676 5.63468L14.9375 6.08971C15.6001 6.16569 15.8666 7.02221 15.3734 7.49019L12.4179 10.294C12.2152 10.4863 12.125 10.776 12.1807 11.0559L12.9929 15.1375C13.1285 15.8187 12.4304 16.3481 11.8516 16.0031L8.38361 13.9354C8.1458 13.7937 7.85397 13.7937 7.61616 13.9354L4.14817 16.0031C3.56939 16.3482 2.87132 15.8187 3.00688 15.1375L3.81903 11.0559C3.87476 10.776 3.78457 10.4863 3.5819 10.294L0.626385 7.49019C0.133135 7.02221 0.399717 6.16569 1.06231 6.08971L5.03231 5.63468C5.30447 5.60345 5.54069 5.42443 5.65316 5.16386L7.29453 1.36333C7.56862 0.729152 8.43138 0.729152 8.70536 1.36333Z" fill="url(#paint1_linear_1159_1416)"/>
<path d="M14.4678 8.34959C9.86566 7.92079 5.55037 6.77579 2.75373 5.896L1.06256 6.08986C0.399964 6.16583 0.133378 7.02236 0.626628 7.49033L3.58215 10.2941C3.78482 10.4865 3.87501 10.7761 3.81928 11.056L3.00701 15.1377C2.87145 15.8189 3.56952 16.3482 4.1483 16.0032L7.61629 13.9356C7.8541 13.7938 8.14594 13.7938 8.38375 13.9356L11.8517 16.0032C12.4305 16.3483 13.1286 15.8189 12.993 15.1377L12.1809 11.056C12.1251 10.7761 12.2153 10.4865 12.418 10.2941L14.4678 8.34959Z" fill="url(#paint2_linear_1159_1416)"/>
<path d="M13.8572 8.9292C10.1289 10.5884 6.48189 11.2713 3.72392 11.5357L3.00708 15.1382C2.87151 15.8194 3.56959 16.3487 4.14836 16.0038L7.61636 13.9361C7.85417 13.7944 8.146 13.7944 8.38381 13.9361L11.8518 16.0038C12.4306 16.3489 13.1287 15.8194 12.9931 15.1382L12.1809 11.0566C12.1252 10.7766 12.2154 10.487 12.4181 10.2947L13.8572 8.9292Z" fill="url(#paint3_linear_1159_1416)"/>
<defs>
<linearGradient id="paint0_linear_1159_1416" x1="8.78207" y1="-4.99271" x2="7.4327" y2="13.8379" gradientUnits="userSpaceOnUse">
<stop stop-color="#FF8F00"/>
<stop offset="0.108" stop-color="#FF9203"/>
<stop offset="0.1993" stop-color="#FF9D0D"/>
<stop offset="0.2846" stop-color="#FFAE1D"/>
<stop offset="0.3662" stop-color="#FFC734"/>
<stop offset="0.4446" stop-color="#FFE651"/>
<stop offset="0.4609" stop-color="#FFEE58"/>
<stop offset="0.7997" stop-color="#F4991E"/>
<stop offset="0.995" stop-color="#EF6C00"/>
</linearGradient>
<linearGradient id="paint1_linear_1159_1416" x1="10.1419" y1="17.6054" x2="7.58664" y2="5.88062" gradientUnits="userSpaceOnUse">
<stop stop-color="#FFCB28"/>
<stop offset="0.4132" stop-color="#FFCC2B"/>
<stop offset="0.5969" stop-color="#FFD032"/>
<stop offset="0.735" stop-color="#FFD63E"/>
<stop offset="0.8505" stop-color="#FFDF50"/>
<stop offset="0.9507" stop-color="#FFEA68"/>
<stop offset="1" stop-color="#FFF176"/>
</linearGradient>
<linearGradient id="paint2_linear_1159_1416" x1="4.88431" y1="-4.61509" x2="31.1006" y2="111.922" gradientUnits="userSpaceOnUse">
<stop stop-color="#FFD54F"/>
<stop offset="0.4801" stop-color="#FFAF16"/>
<stop offset="0.6546" stop-color="#FFA000"/>
</linearGradient>
<linearGradient id="paint3_linear_1159_1416" x1="6.15107" y1="1.90036" x2="9.64504" y2="16.3838" gradientUnits="userSpaceOnUse">
<stop stop-color="#FFD54F"/>
<stop offset="0.4801" stop-color="#FFAF16"/>
<stop offset="0.6546" stop-color="#FFA000"/>
</linearGradient>
</defs>
</svg>
