<svg width="48" height="48" viewBox="0 0 48 48" fill="none" xmlns="http://www.w3.org/2000/svg">
<rect width="48" height="48" rx="24" fill="#FF5A5A"/>
<path d="M28.15 15C28.5667 15 28.9208 15.1458 29.2125 15.4375C29.5042 15.7292 29.65 16.0833 29.65 16.5V27.2C29.65 27.3833 29.6125 27.5667 29.5375 27.75C29.4625 27.9333 29.3583 28.0917 29.225 28.225L24.05 33.675C23.8167 33.9083 23.5375 34.05 23.2125 34.1C22.8875 34.15 22.5833 34.0917 22.3 33.925C22.0167 33.7583 21.8042 33.525 21.6625 33.225C21.5208 32.925 21.4833 32.6167 21.55 32.3L22.5 27.8H14.5C14.1167 27.8 13.7708 27.6458 13.4625 27.3375C13.1542 27.0292 13 26.6833 13 26.3V24.25C13 24.0667 13.0208 23.8542 13.0625 23.6125C13.1042 23.3708 13.1667 23.1583 13.25 22.975L16.15 16.275C16.3 15.925 16.5458 15.625 16.8875 15.375C17.2292 15.125 17.5917 15 17.975 15H28.15ZM32.575 15C32.9583 15 33.2917 15.1417 33.575 15.425C33.8583 15.7083 34 16.0417 34 16.425V26.375C34 26.7583 33.8583 27.0917 33.575 27.375C33.2917 27.6583 32.9583 27.8 32.575 27.8C32.1917 27.8 31.8583 27.6583 31.575 27.375C31.2917 27.0917 31.15 26.7583 31.15 26.375V16.425C31.15 16.0417 31.2917 15.7083 31.575 15.425C31.8583 15.1417 32.1917 15 32.575 15Z" fill="white"/>
</svg>
