<svg width="120" height="44" viewBox="0 0 120 44" fill="none" xmlns="http://www.w3.org/2000/svg">
<path d="M112.5 -1H8.5C4.35786 -1 1 2.35786 1 6.5V34.5C1 38.6421 4.35786 42 8.5 42H112.5C116.642 42 120 38.6421 120 34.5V6.5C120 2.35786 116.642 -1 112.5 -1Z" fill="#E8FFEB"/>
<path d="M28.5391 33.6228H35.4874C35.9016 33.6228 36.2372 33.2829 36.2372 32.8635V18.5205C36.2372 18.1011 35.9016 17.7612 35.4874 17.7612H28.5391V33.6228Z" fill="#779CEB"/>
<path d="M52.5016 21.7172C53.5837 21.7172 54.4611 20.8287 54.4611 19.7329C54.4611 18.6371 53.5837 17.7485 52.5016 17.7485H46.2911C47.3721 15.7774 47.4048 9.79003 44.8399 9.07106C44.3543 8.93502 43.8724 9.31072 43.8177 9.81792C43.3671 14.0195 40.8282 19.2423 38.2473 19.3937H36.2368V31.9175H37.2798C37.8413 31.9175 38.3775 32.1111 38.8457 32.425C40.0141 33.2088 41.9821 33.6674 43.8683 33.6192H44.7804V33.623H51.0463C52.1284 33.623 53.0058 32.7344 53.0058 31.6386C53.0058 30.5428 52.1284 29.6543 51.0463 29.6543H51.9196C53.0017 29.6543 53.8791 28.7657 53.8791 27.6699C53.8791 26.5741 53.0017 25.6856 51.9196 25.6856H52.5019C53.584 25.6856 54.4615 24.797 54.4615 23.7012C54.4615 22.6054 53.5837 21.7172 52.5016 21.7172Z" fill="white"/>
<path d="M35.4869 34.0005H28.5386C28.3332 34.0005 28.1665 33.8321 28.1665 33.6237V17.7621C28.1665 17.5537 28.3332 17.3853 28.5386 17.3853H35.4869C36.1054 17.3853 36.6088 17.8951 36.6088 18.5214V32.8644C36.6088 33.4907 36.1054 34.0005 35.4869 34.0005ZM28.9107 33.2469H35.4869C35.6953 33.2469 35.8646 33.0754 35.8646 32.8644V18.5214C35.8646 18.3104 35.6953 18.1389 35.4869 18.1389H28.9107V33.2469Z" fill="black"/>
<path d="M43.5957 33.9998C41.7203 33.9998 39.7969 33.5152 38.6404 32.7394C38.2065 32.4485 37.7362 32.2943 37.2804 32.2943H36.2373C36.0319 32.2943 35.8652 32.1259 35.8652 31.9175V19.3938C35.8652 19.1854 36.0319 19.017 36.2373 19.017H38.2478C40.5192 18.8836 43.0141 13.8244 43.4484 9.77727C43.4878 9.40912 43.6839 9.0794 43.9857 8.87177C44.2693 8.67657 44.6179 8.61779 44.9394 8.70747C45.7186 8.92603 46.3512 9.57454 46.7687 10.5833C47.5925 12.5725 47.482 15.6595 46.8643 17.3714H52.5017C53.7874 17.3714 54.8333 18.431 54.8333 19.7329C54.8333 20.5642 54.4069 21.296 53.7643 21.7173C54.4073 22.1382 54.8333 22.8704 54.8333 23.7016C54.8333 24.6712 54.2529 25.5062 53.426 25.8691C53.9302 26.3025 54.2514 26.9491 54.2514 27.67C54.2514 28.7175 53.5741 29.6083 52.6398 29.9162C53.0941 30.3477 53.378 30.9604 53.378 31.6387C53.378 32.9406 52.332 33.9998 51.0464 33.9998H44.7802C44.7634 33.9998 44.7467 33.9987 44.7307 33.9964H43.8681C43.7777 33.9987 43.6865 33.9998 43.5957 33.9998ZM36.6091 31.5411H37.28C37.8824 31.5411 38.4949 31.7381 39.0512 32.1112C40.1452 32.8453 42.0277 33.2884 43.8588 33.2432H44.7805C44.7973 33.2432 44.814 33.2443 44.83 33.2466H51.0464C51.922 33.2466 52.6338 32.5257 52.6338 31.639C52.6338 30.7524 51.922 30.0315 51.0464 30.0315C50.8406 30.0315 50.6743 29.8631 50.6743 29.6547C50.6743 29.4463 50.8406 29.2779 51.0464 29.2779H51.9198C52.7953 29.2779 53.5072 28.5566 53.5072 27.67C53.5072 26.7833 52.7953 26.0624 51.9198 26.0624C51.714 26.0624 51.5476 25.894 51.5476 25.6856C51.5476 25.4772 51.714 25.3088 51.9198 25.3088H52.5017C53.3773 25.3088 54.0891 24.5879 54.0891 23.7013C54.0891 22.8146 53.3773 22.0937 52.5017 22.0937C52.296 22.0937 52.1296 21.9253 52.1296 21.7169C52.1296 21.5085 52.296 21.3401 52.5017 21.3401C53.3773 21.3401 54.0891 20.6192 54.0891 19.7326C54.0891 18.8459 53.3773 18.1247 52.5017 18.1247H46.2913C46.1596 18.1247 46.0375 18.0538 45.9709 17.9389C45.9035 17.824 45.9021 17.6815 45.9661 17.5651C46.7062 16.2149 46.9049 12.8627 46.0825 10.8746C45.7513 10.0753 45.3 9.59075 44.7411 9.43399C44.5867 9.39141 44.4639 9.45396 44.404 9.49541C44.2849 9.57756 44.2041 9.71321 44.1885 9.85867C43.7107 14.3097 41.0211 19.6086 38.2694 19.7699L36.6094 19.7706L36.6091 31.5411Z" fill="black"/>
<path d="M52.5012 22.094H49.1485C48.9427 22.094 48.7764 21.9255 48.7764 21.7172C48.7764 21.5088 48.9427 21.3403 49.1485 21.3403H52.5012C52.7069 21.3403 52.8733 21.5088 52.8733 21.7172C52.8733 21.9255 52.7069 22.094 52.5012 22.094Z" fill="black"/>
<path d="M51.9198 26.0627H49.1494C48.9437 26.0627 48.7773 25.8943 48.7773 25.6859C48.7773 25.4775 48.9437 25.3091 49.1494 25.3091H51.9198C52.1256 25.3091 52.2919 25.4775 52.2919 25.6859C52.2919 25.8943 52.1256 26.0627 51.9198 26.0627Z" fill="black"/>
<path d="M51.0458 30.031H49.1485C48.9427 30.031 48.7764 29.8626 48.7764 29.6542C48.7764 29.4458 48.9427 29.2773 49.1485 29.2773H51.0458C51.2516 29.2773 51.4179 29.4458 51.4179 29.6542C51.4179 29.8626 51.2516 30.031 51.0458 30.031Z" fill="black"/>
<path d="M33.4248 31.1345H32.3877C32.1823 31.1345 32.0156 30.9661 32.0156 30.7577C32.0156 30.5493 32.1823 30.3809 32.3877 30.3809H33.4248C33.6302 30.3809 33.7969 30.5493 33.7969 30.7577C33.7969 30.9661 33.6302 31.1345 33.4248 31.1345Z" fill="black"/>
<path d="M112 0.5H8C3.85786 0.5 0.5 3.85786 0.5 8V36C0.5 40.1421 3.85786 43.5 8 43.5H112C116.142 43.5 119.5 40.1421 119.5 36V8C119.5 3.85786 116.142 0.5 112 0.5Z" stroke="#219B34"/>
<g filter="url(#filter0_d_9_29)">
<path d="M60.4858 16.1818H62.402L66.2344 22.6321H66.3963L70.2287 16.1818H72.1449L67.152 24.3054V30H65.4787V24.3054L60.4858 16.1818ZM76.9725 30.2159C75.9739 30.2159 75.1125 29.9955 74.3883 29.5547C73.6686 29.1094 73.1131 28.4886 72.7218 27.6925C72.3349 26.8918 72.1415 25.9607 72.1415 24.8991C72.1415 23.8376 72.3349 22.902 72.7218 22.0923C73.1131 21.2782 73.6574 20.6439 74.3546 20.1896C75.0563 19.7308 75.8749 19.5014 76.8105 19.5014C77.3503 19.5014 77.8833 19.5914 78.4096 19.7713C78.9359 19.9512 79.415 20.2436 79.8468 20.6484C80.2786 21.0488 80.6227 21.5795 80.8791 22.2408C81.1355 22.902 81.2637 23.7161 81.2637 24.6832V25.358H73.275V23.9815H79.6444C79.6444 23.3968 79.5274 22.875 79.2935 22.4162C79.0641 21.9574 78.7357 21.5953 78.3084 21.3299C77.8856 21.0645 77.3863 20.9318 76.8105 20.9318C76.1763 20.9318 75.6275 21.0893 75.1642 21.4041C74.7054 21.7145 74.3523 22.1193 74.1049 22.6186C73.8575 23.1179 73.7338 23.6532 73.7338 24.2244V25.142C73.7338 25.9247 73.8688 26.5882 74.1387 27.1325C74.4131 27.6722 74.7931 28.0838 75.2789 28.3672C75.7647 28.6461 76.3292 28.7855 76.9725 28.7855C77.3908 28.7855 77.7686 28.727 78.106 28.6101C78.4479 28.4886 78.7425 28.3087 78.9899 28.0703C79.2373 27.8274 79.4284 27.526 79.5634 27.1662L81.1017 27.598C80.9398 28.1198 80.6677 28.5786 80.2853 28.9744C79.903 29.3658 79.4307 29.6716 78.8684 29.892C78.3062 30.108 77.6742 30.2159 76.9725 30.2159ZM91.0268 21.9574L89.5964 22.3622C89.5065 22.1238 89.3738 21.8922 89.1983 21.6673C89.0274 21.4379 88.7935 21.2489 88.4966 21.1005C88.1998 20.9521 87.8197 20.8778 87.3564 20.8778C86.7221 20.8778 86.1936 21.024 85.7708 21.3164C85.3525 21.6043 85.1433 21.9709 85.1433 22.4162C85.1433 22.812 85.2872 23.1246 85.5751 23.354C85.863 23.5835 86.3128 23.7746 86.9245 23.9276L88.4629 24.3054C89.3895 24.5303 90.08 24.8744 90.5343 25.3377C90.9886 25.7965 91.2157 26.388 91.2157 27.1122C91.2157 27.706 91.0448 28.2367 90.7029 28.7045C90.3656 29.1723 89.8933 29.5412 89.286 29.8111C88.6788 30.081 87.9726 30.2159 87.1674 30.2159C86.1104 30.2159 85.2355 29.9865 84.5428 29.5277C83.8501 29.0689 83.4115 28.3987 83.2271 27.517L84.7385 27.1392C84.8824 27.697 85.1545 28.1153 85.5549 28.3942C85.9597 28.6731 86.4882 28.8125 87.1404 28.8125C87.8826 28.8125 88.4719 28.6551 88.9082 28.3402C89.349 28.0208 89.5694 27.6385 89.5694 27.1932C89.5694 26.8333 89.4435 26.532 89.1916 26.2891C88.9397 26.0417 88.5529 25.8572 88.0311 25.7358L86.3038 25.331C85.3547 25.1061 84.6575 24.7575 84.2122 24.2852C83.7714 23.8084 83.551 23.2124 83.551 22.4972C83.551 21.9124 83.7151 21.3951 84.0435 20.9453C84.3764 20.4955 84.8284 20.1424 85.3997 19.886C85.9754 19.6296 86.6277 19.5014 87.3564 19.5014C88.3819 19.5014 89.1871 19.7263 89.7718 20.1761C90.3611 20.6259 90.7794 21.2197 91.0268 21.9574Z" fill="black"/>
</g>
<defs>
<filter id="filter0_d_9_29" x="56.4858" y="16.1818" width="38.7299" height="22.0341" filterUnits="userSpaceOnUse" color-interpolation-filters="sRGB">
<feFlood flood-opacity="0" result="BackgroundImageFix"/>
<feColorMatrix in="SourceAlpha" type="matrix" values="0 0 0 0 0 0 0 0 0 0 0 0 0 0 0 0 0 0 127 0" result="hardAlpha"/>
<feOffset dy="4"/>
<feGaussianBlur stdDeviation="2"/>
<feComposite in2="hardAlpha" operator="out"/>
<feColorMatrix type="matrix" values="0 0 0 0 0 0 0 0 0 0 0 0 0 0 0 0 0 0 0.25 0"/>
<feBlend mode="normal" in2="BackgroundImageFix" result="effect1_dropShadow_9_29"/>
<feBlend mode="normal" in="SourceGraphic" in2="effect1_dropShadow_9_29" result="shape"/>
</filter>
</defs>
</svg>
