<svg width="120" height="44" viewBox="0 0 120 44" fill="none" xmlns="http://www.w3.org/2000/svg">
<path d="M112 0.5H8C3.85786 0.5 0.5 3.85786 0.5 8V36C0.5 40.1421 3.85786 43.5 8 43.5H112C116.142 43.5 119.5 40.1421 119.5 36V8C119.5 3.85786 116.142 0.5 112 0.5Z" fill="#FFE8E8"/>
<path d="M45.4609 10.3776H38.5126C38.0984 10.3776 37.7628 10.7175 37.7628 11.1369V25.48C37.7628 25.8994 38.0984 26.2393 38.5126 26.2393H45.4609V10.3776Z" fill="#779CEB"/>
<path d="M21.4984 22.2832C20.4163 22.2832 19.5389 23.1718 19.5389 24.2676C19.5389 25.3634 20.4163 26.2519 21.4984 26.2519H27.7089C26.6279 28.2231 26.5952 34.2105 29.1601 34.9294C29.6457 35.0655 30.1276 34.6898 30.1823 34.1826C30.6329 29.981 33.1718 24.7582 35.7527 24.6067H37.7632V12.083H36.7202C36.1587 12.083 35.6225 11.8893 35.1543 11.5754C33.9859 10.7917 32.0179 10.3331 30.1317 10.3813H29.2196V10.3775H22.9537C21.8716 10.3775 20.9942 11.2661 20.9942 12.3619C20.9942 13.4577 21.8716 14.3462 22.9537 14.3462H22.0804C20.9983 14.3462 20.1209 15.2348 20.1209 16.3306C20.1209 17.4264 20.9983 18.3149 22.0804 18.3149H21.4981C20.416 18.3149 19.5385 19.2035 19.5385 20.2993C19.5385 21.3951 20.4163 22.2832 21.4984 22.2832Z" fill="white"/>
<path d="M38.5131 9.99997L45.4614 9.99998C45.6668 9.99998 45.8335 10.1684 45.8335 10.3768V26.2384C45.8335 26.4468 45.6668 26.6152 45.4614 26.6152H38.5131C37.8946 26.6152 37.3912 26.1054 37.3912 25.4791V11.1361C37.3912 10.5098 37.8946 9.99997 38.5131 9.99997ZM45.0893 10.7536H38.5131C38.3047 10.7536 38.1354 10.9251 38.1354 11.1361V25.4791C38.1354 25.6901 38.3047 25.8616 38.5131 25.8616H45.0893V10.7536Z" fill="black"/>
<path d="M30.4043 10.0006C32.2797 10.0006 34.2031 10.4852 35.3596 11.2611C35.7935 11.552 36.2638 11.7062 36.7196 11.7062H37.7627C37.9681 11.7062 38.1348 11.8746 38.1348 12.083V24.6067C38.1348 24.8151 37.9681 24.9835 37.7627 24.9835H35.7522C33.4808 25.1169 30.9859 30.1761 30.5516 34.2232C30.5122 34.5914 30.3161 34.9211 30.0143 35.1287C29.7307 35.3239 29.3821 35.3827 29.0606 35.293C28.2814 35.0745 27.6488 34.4259 27.2313 33.4172C26.4075 31.4279 26.518 28.341 27.1357 26.6291H21.4983C20.2126 26.6291 19.1667 25.5695 19.1667 24.2675C19.1667 23.4363 19.5931 22.7045 20.2357 22.2832C19.5927 21.8623 19.1667 21.1301 19.1667 20.2988C19.1667 19.3293 19.7471 18.4942 20.574 18.1314C20.0698 17.698 19.7486 17.0514 19.7486 16.3305C19.7486 15.283 20.4259 14.3921 21.3602 14.0843C20.9059 13.6528 20.622 13.0401 20.622 12.3618C20.622 11.0599 21.668 10.0006 22.9536 10.0006H29.2198C29.2366 10.0006 29.2533 10.0018 29.2693 10.004H30.1319C30.2223 10.0018 30.3135 10.0006 30.4043 10.0006ZM37.3909 12.4594H36.72C36.1176 12.4594 35.5051 12.2623 34.9488 11.8893C33.8548 11.1552 31.9723 10.7121 30.1412 10.7573H29.2195C29.2027 10.7573 29.186 10.7562 29.17 10.7539H22.9536C22.078 10.7539 21.3662 11.4748 21.3662 12.3614C21.3662 13.2481 22.078 13.969 22.9536 13.969C23.1594 13.969 23.3257 14.1374 23.3257 14.3458C23.3257 14.5542 23.1594 14.7226 22.9536 14.7226H22.0802C21.2047 14.7226 20.4928 15.4439 20.4928 16.3305C20.4928 17.2172 21.2047 17.938 22.0802 17.938C22.286 17.938 22.4524 18.1065 22.4524 18.3149C22.4524 18.5233 22.286 18.6917 22.0802 18.6917H21.4983C20.6227 18.6917 19.9109 19.4126 19.9109 20.2992C19.9109 21.1859 20.6227 21.9068 21.4983 21.9068C21.704 21.9068 21.8704 22.0752 21.8704 22.2836C21.8704 22.492 21.704 22.6604 21.4983 22.6604C20.6227 22.6604 19.9109 23.3813 19.9109 24.2679C19.9109 25.1546 20.6227 25.8758 21.4983 25.8758H27.7087C27.8405 25.8758 27.9625 25.9467 28.0291 26.0616C28.0965 26.1765 28.0979 26.319 28.0339 26.4354C27.2938 27.7856 27.0951 31.1378 27.9175 33.1259C28.2486 33.9251 28.7 34.4097 29.2589 34.5665C29.4133 34.6091 29.5361 34.5465 29.596 34.5051C29.7151 34.4229 29.7959 34.2873 29.8115 34.1418C30.2893 29.6908 32.9789 24.3919 35.7306 24.2306L37.3906 24.2299L37.3909 12.4594Z" fill="black"/>
<path d="M112 0.5H8C3.85786 0.5 0.5 3.85786 0.5 8V36C0.5 40.1421 3.85786 43.5 8 43.5H112C116.142 43.5 119.5 40.1421 119.5 36V8C119.5 3.85786 116.142 0.5 112 0.5Z" stroke="#C83A3A"/>
<g filter="url(#filter0_d_9_32)">
<path d="M70.6307 13.1818V27H69.0114L61.4815 16.1506H61.3466V27H59.6733V13.1818H61.2926L68.8494 24.0582H68.9844V13.1818H70.6307ZM77.9733 27.2159C77.0377 27.2159 76.2168 26.9933 75.5106 26.5479C74.8089 26.1026 74.2601 25.4796 73.8643 24.679C73.4729 23.8783 73.2773 22.9427 73.2773 21.8722C73.2773 20.7926 73.4729 19.8503 73.8643 19.0451C74.2601 18.2399 74.8089 17.6147 75.5106 17.1694C76.2168 16.7241 77.0377 16.5014 77.9733 16.5014C78.9089 16.5014 79.7275 16.7241 80.4292 17.1694C81.1354 17.6147 81.6842 18.2399 82.0756 19.0451C82.4714 19.8503 82.6693 20.7926 82.6693 21.8722C82.6693 22.9427 82.4714 23.8783 82.0756 24.679C81.6842 25.4796 81.1354 26.1026 80.4292 26.5479C79.7275 26.9933 78.9089 27.2159 77.9733 27.2159ZM77.9733 25.7855C78.684 25.7855 79.2687 25.6033 79.7275 25.239C80.1863 24.8746 80.526 24.3956 80.7464 23.8018C80.9668 23.2081 81.077 22.5649 81.077 21.8722C81.077 21.1795 80.9668 20.534 80.7464 19.9357C80.526 19.3375 80.1863 18.8539 79.7275 18.4851C79.2687 18.1162 78.684 17.9318 77.9733 17.9318C77.2626 17.9318 76.6778 18.1162 76.219 18.4851C75.7602 18.8539 75.4206 19.3375 75.2002 19.9357C74.9798 20.534 74.8696 21.1795 74.8696 21.8722C74.8696 22.5649 74.9798 23.2081 75.2002 23.8018C75.4206 24.3956 75.7602 24.8746 76.219 25.239C76.6778 25.6033 77.2626 25.7855 77.9733 25.7855Z" fill="black"/>
</g>
<defs>
<filter id="filter0_d_9_32" x="55.6733" y="13.1818" width="30.996" height="22.0341" filterUnits="userSpaceOnUse" color-interpolation-filters="sRGB">
<feFlood flood-opacity="0" result="BackgroundImageFix"/>
<feColorMatrix in="SourceAlpha" type="matrix" values="0 0 0 0 0 0 0 0 0 0 0 0 0 0 0 0 0 0 127 0" result="hardAlpha"/>
<feOffset dy="4"/>
<feGaussianBlur stdDeviation="2"/>
<feComposite in2="hardAlpha" operator="out"/>
<feColorMatrix type="matrix" values="0 0 0 0 0 0 0 0 0 0 0 0 0 0 0 0 0 0 0.25 0"/>
<feBlend mode="normal" in2="BackgroundImageFix" result="effect1_dropShadow_9_32"/>
<feBlend mode="normal" in="SourceGraphic" in2="effect1_dropShadow_9_32" result="shape"/>
</filter>
</defs>
</svg>
