<svg width="120" height="44" viewBox="0 0 120 44" fill="none" xmlns="http://www.w3.org/2000/svg">
<rect x="0.5" y="0.5" width="119" height="43" rx="7.5" fill="#E8FFEB"/>
<path d="M28.5391 33.6228H35.4874C35.9016 33.6228 36.2372 33.2829 36.2372 32.8635V18.5205C36.2372 18.1011 35.9016 17.7612 35.4874 17.7612H28.5391V33.6228Z" fill="#779CEB"/>
<path d="M52.5016 21.7172C53.5837 21.7172 54.4611 20.8287 54.4611 19.7329C54.4611 18.6371 53.5837 17.7485 52.5016 17.7485H46.2911C47.3721 15.7774 47.4048 9.79003 44.8399 9.07106C44.3543 8.93502 43.8724 9.31072 43.8177 9.81792C43.3671 14.0195 40.8282 19.2423 38.2473 19.3937H36.2368V31.9175H37.2798C37.8413 31.9175 38.3775 32.1111 38.8457 32.425C40.0141 33.2088 41.9821 33.6674 43.8683 33.6192H44.7804V33.623H51.0463C52.1284 33.623 53.0058 32.7344 53.0058 31.6386C53.0058 30.5428 52.1284 29.6543 51.0463 29.6543H51.9196C53.0017 29.6543 53.8791 28.7657 53.8791 27.6699C53.8791 26.5741 53.0017 25.6856 51.9196 25.6856H52.5019C53.584 25.6856 54.4615 24.797 54.4615 23.7012C54.4615 22.6054 53.5837 21.7172 52.5016 21.7172Z" fill="white"/>
<path d="M35.4869 34.0005H28.5386C28.3332 34.0005 28.1665 33.8321 28.1665 33.6237V17.7621C28.1665 17.5537 28.3332 17.3853 28.5386 17.3853H35.4869C36.1054 17.3853 36.6088 17.8951 36.6088 18.5214V32.8644C36.6088 33.4907 36.1054 34.0005 35.4869 34.0005ZM28.9107 33.2469H35.4869C35.6953 33.2469 35.8646 33.0754 35.8646 32.8644V18.5214C35.8646 18.3104 35.6953 18.1389 35.4869 18.1389H28.9107V33.2469Z" fill="black"/>
<path d="M43.5957 33.9998C41.7203 33.9998 39.7969 33.5152 38.6404 32.7394C38.2065 32.4485 37.7362 32.2943 37.2804 32.2943H36.2373C36.0319 32.2943 35.8652 32.1259 35.8652 31.9175V19.3938C35.8652 19.1854 36.0319 19.017 36.2373 19.017H38.2478C40.5192 18.8836 43.0141 13.8244 43.4484 9.77727C43.4878 9.40912 43.6839 9.0794 43.9857 8.87177C44.2693 8.67657 44.6179 8.61779 44.9394 8.70747C45.7186 8.92603 46.3512 9.57454 46.7687 10.5833C47.5925 12.5725 47.482 15.6595 46.8643 17.3714H52.5017C53.7874 17.3714 54.8333 18.431 54.8333 19.7329C54.8333 20.5642 54.4069 21.296 53.7643 21.7173C54.4073 22.1382 54.8333 22.8704 54.8333 23.7016C54.8333 24.6712 54.2529 25.5062 53.426 25.8691C53.9302 26.3025 54.2514 26.9491 54.2514 27.67C54.2514 28.7175 53.5741 29.6083 52.6398 29.9162C53.0941 30.3477 53.378 30.9604 53.378 31.6387C53.378 32.9406 52.332 33.9998 51.0464 33.9998H44.7802C44.7634 33.9998 44.7467 33.9987 44.7307 33.9964H43.8681C43.7777 33.9987 43.6865 33.9998 43.5957 33.9998ZM36.6091 31.5411H37.28C37.8824 31.5411 38.4949 31.7381 39.0512 32.1112C40.1452 32.8453 42.0277 33.2884 43.8588 33.2432H44.7805C44.7973 33.2432 44.814 33.2443 44.83 33.2466H51.0464C51.922 33.2466 52.6338 32.5257 52.6338 31.639C52.6338 30.7524 51.922 30.0315 51.0464 30.0315C50.8406 30.0315 50.6743 29.8631 50.6743 29.6547C50.6743 29.4463 50.8406 29.2779 51.0464 29.2779H51.9198C52.7953 29.2779 53.5072 28.5566 53.5072 27.67C53.5072 26.7833 52.7953 26.0624 51.9198 26.0624C51.714 26.0624 51.5476 25.894 51.5476 25.6856C51.5476 25.4772 51.714 25.3088 51.9198 25.3088H52.5017C53.3773 25.3088 54.0891 24.5879 54.0891 23.7013C54.0891 22.8146 53.3773 22.0937 52.5017 22.0937C52.296 22.0937 52.1296 21.9253 52.1296 21.7169C52.1296 21.5085 52.296 21.3401 52.5017 21.3401C53.3773 21.3401 54.0891 20.6192 54.0891 19.7326C54.0891 18.8459 53.3773 18.1247 52.5017 18.1247H46.2913C46.1596 18.1247 46.0375 18.0538 45.9709 17.9389C45.9035 17.824 45.9021 17.6815 45.9661 17.5651C46.7062 16.2149 46.9049 12.8627 46.0825 10.8746C45.7513 10.0753 45.3 9.59075 44.7411 9.43399C44.5867 9.39141 44.4639 9.45396 44.404 9.49541C44.2849 9.57756 44.2041 9.71321 44.1885 9.85867C43.7107 14.3097 41.0211 19.6086 38.2694 19.7699L36.6094 19.7706L36.6091 31.5411Z" fill="black"/>
<path d="M52.5012 22.094H49.1485C48.9427 22.094 48.7764 21.9255 48.7764 21.7172C48.7764 21.5088 48.9427 21.3403 49.1485 21.3403H52.5012C52.7069 21.3403 52.8733 21.5088 52.8733 21.7172C52.8733 21.9255 52.7069 22.094 52.5012 22.094Z" fill="black"/>
<path d="M51.9198 26.0627H49.1494C48.9437 26.0627 48.7773 25.8943 48.7773 25.6859C48.7773 25.4775 48.9437 25.3091 49.1494 25.3091H51.9198C52.1256 25.3091 52.2919 25.4775 52.2919 25.6859C52.2919 25.8943 52.1256 26.0627 51.9198 26.0627Z" fill="black"/>
<path d="M51.0458 30.031H49.1485C48.9427 30.031 48.7764 29.8626 48.7764 29.6542C48.7764 29.4458 48.9427 29.2773 49.1485 29.2773H51.0458C51.2516 29.2773 51.4179 29.4458 51.4179 29.6542C51.4179 29.8626 51.2516 30.031 51.0458 30.031Z" fill="black"/>
<path d="M33.4248 31.1345H32.3877C32.1823 31.1345 32.0156 30.9661 32.0156 30.7577C32.0156 30.5493 32.1823 30.3809 32.3877 30.3809H33.4248C33.6302 30.3809 33.7969 30.5493 33.7969 30.7577C33.7969 30.9661 33.6302 31.1345 33.4248 31.1345Z" fill="black"/>
<path d="M73.7188 26.2734V27.5H68.0312V26.2734H73.7188ZM68.3281 16.125V27.5H66.8203V16.125H68.3281ZM76.7969 19.0469V27.5H75.3438V19.0469H76.7969ZM75.2344 16.8047C75.2344 16.5703 75.3047 16.3724 75.4453 16.2109C75.5911 16.0495 75.8047 15.9688 76.0859 15.9688C76.362 15.9688 76.5729 16.0495 76.7188 16.2109C76.8698 16.3724 76.9453 16.5703 76.9453 16.8047C76.9453 17.0286 76.8698 17.2214 76.7188 17.3828C76.5729 17.5391 76.362 17.6172 76.0859 17.6172C75.8047 17.6172 75.5911 17.5391 75.4453 17.3828C75.3047 17.2214 75.2344 17.0286 75.2344 16.8047ZM80.5703 15.5V27.5H79.1172V15.5H80.5703ZM85.7344 19.0469L82.0469 22.9922L79.9844 25.1328L79.8672 23.5938L81.3438 21.8281L83.9688 19.0469H85.7344ZM84.4141 27.5L81.3984 23.4688L82.1484 22.1797L86.1172 27.5H84.4141ZM90.5781 27.6562C89.9896 27.6562 89.4557 27.5573 88.9766 27.3594C88.5026 27.1562 88.0938 26.8724 87.75 26.5078C87.4115 26.1432 87.151 25.7109 86.9688 25.2109C86.7865 24.7109 86.6953 24.1641 86.6953 23.5703V23.2422C86.6953 22.5547 86.7969 21.9427 87 21.4062C87.2031 20.8646 87.4792 20.4062 87.8281 20.0312C88.1771 19.6562 88.5729 19.3724 89.0156 19.1797C89.4583 18.987 89.9167 18.8906 90.3906 18.8906C90.9948 18.8906 91.5156 18.9948 91.9531 19.2031C92.3958 19.4115 92.7578 19.7031 93.0391 20.0781C93.3203 20.4479 93.5286 20.8854 93.6641 21.3906C93.7995 21.8906 93.8672 22.4375 93.8672 23.0312V23.6797H87.5547V22.5H92.4219V22.3906C92.401 22.0156 92.3229 21.651 92.1875 21.2969C92.0573 20.9427 91.849 20.651 91.5625 20.4219C91.276 20.1927 90.8854 20.0781 90.3906 20.0781C90.0625 20.0781 89.7604 20.1484 89.4844 20.2891C89.2083 20.4245 88.9714 20.6276 88.7734 20.8984C88.5755 21.1693 88.4219 21.5 88.3125 21.8906C88.2031 22.2812 88.1484 22.7318 88.1484 23.2422V23.5703C88.1484 23.9714 88.2031 24.349 88.3125 24.7031C88.4271 25.0521 88.5911 25.3594 88.8047 25.625C89.0234 25.8906 89.2865 26.099 89.5938 26.25C89.9062 26.401 90.2604 26.4766 90.6562 26.4766C91.1667 26.4766 91.599 26.3724 91.9531 26.1641C92.3073 25.9557 92.6172 25.6771 92.8828 25.3281L93.7578 26.0234C93.5755 26.2995 93.3438 26.5625 93.0625 26.8125C92.7812 27.0625 92.4349 27.2656 92.0234 27.4219C91.6172 27.5781 91.1354 27.6562 90.5781 27.6562Z" fill="black"/>
<rect x="0.5" y="0.5" width="119" height="43" rx="7.5" stroke="#219B34"/>
</svg>
