<svg width="48" height="48" viewBox="0 0 48 48" fill="none" xmlns="http://www.w3.org/2000/svg">
<rect width="48" height="48" rx="24" fill="#5AD36D"/>
<path d="M19.85 33C19.4333 33 19.0792 32.8542 18.7875 32.5625C18.4958 32.2708 18.35 31.9167 18.35 31.5V20.8C18.35 20.6167 18.3875 20.4333 18.4625 20.25C18.5375 20.0667 18.6417 19.9083 18.775 19.775L23.95 14.325C24.1833 14.0917 24.4625 13.95 24.7875 13.9C25.1125 13.85 25.4167 13.9083 25.7 14.075C25.9833 14.2417 26.1958 14.475 26.3375 14.775C26.4792 15.075 26.5167 15.3833 26.45 15.7L25.5 20.2H33.5C33.8833 20.2 34.2292 20.3542 34.5375 20.6625C34.8458 20.9708 35 21.3167 35 21.7V23.75C35 23.9333 34.9792 24.1458 34.9375 24.3875C34.8958 24.6292 34.8333 24.8417 34.75 25.025L31.85 31.725C31.7 32.075 31.4542 32.375 31.1125 32.625C30.7708 32.875 30.4083 33 30.025 33H19.85ZM15.425 33C15.0417 33 14.7083 32.8583 14.425 32.575C14.1417 32.2917 14 31.9583 14 31.575V21.625C14 21.2417 14.1417 20.9083 14.425 20.625C14.7083 20.3417 15.0417 20.2 15.425 20.2C15.8083 20.2 16.1417 20.3417 16.425 20.625C16.7083 20.9083 16.85 21.2417 16.85 21.625V31.575C16.85 31.9583 16.7083 32.2917 16.425 32.575C16.1417 32.8583 15.8083 33 15.425 33Z" fill="white"/>
</svg>
